G04*
G04 #@! TF.GenerationSoftware,Altium Limited,Altium Designer,24.4.1 (13)*
G04*
G04 Layer_Color=128*
%FSLAX25Y25*%
%MOIN*%
G70*
G04*
G04 #@! TF.SameCoordinates,97D1044A-C35F-4CB3-83FE-F4252C381A68*
G04*
G04*
G04 #@! TF.FilePolarity,Positive*
G04*
G01*
G75*
%ADD48C,0.00500*%
D48*
X144547Y51000D02*
X150453D01*
X147500Y48047D02*
Y53953D01*
X124547Y36000D02*
X130453D01*
X127500Y33047D02*
Y38953D01*
X124547Y61000D02*
X130453D01*
X127500Y58047D02*
Y63953D01*
X197992Y166500D02*
X202008D01*
X200000Y164492D02*
Y168508D01*
X197992Y156500D02*
X202008D01*
X200000Y154492D02*
Y158508D01*
X197992Y146500D02*
X202008D01*
X200000Y144492D02*
Y148508D01*
X197992Y136500D02*
X202008D01*
X200000Y134492D02*
Y138508D01*
X103492Y245000D02*
X107508D01*
X105500Y242992D02*
Y247008D01*
X93492Y245000D02*
X97508D01*
X95500Y242992D02*
Y247008D01*
X83492Y245000D02*
X87508D01*
X85500Y242992D02*
Y247008D01*
X197835Y211000D02*
X202165D01*
X200000Y208835D02*
Y213165D01*
X197835Y221000D02*
X202165D01*
X200000Y218835D02*
Y223165D01*
X197835Y231000D02*
X202165D01*
X200000Y228835D02*
Y233165D01*
X197835Y241000D02*
X202165D01*
X200000Y238835D02*
Y243165D01*
X197835Y251000D02*
X202165D01*
X200000Y248835D02*
Y253165D01*
X199335Y47000D02*
X203665D01*
X201500Y44835D02*
Y49165D01*
X189335Y47000D02*
X193665D01*
X191500Y44835D02*
Y49165D01*
X179335Y47000D02*
X183665D01*
X181500Y44835D02*
Y49165D01*
X169335Y47000D02*
X173665D01*
X171500Y44835D02*
Y49165D01*
X96531Y71000D02*
X100469D01*
X98500Y69032D02*
Y72969D01*
X96531Y91000D02*
X100469D01*
X98500Y89031D02*
Y92968D01*
X96531Y101000D02*
X100469D01*
X98500Y99032D02*
Y102969D01*
X96531Y81000D02*
X100469D01*
X98500Y79031D02*
Y82968D01*
X96531Y11000D02*
X100469D01*
X98500Y9031D02*
Y12968D01*
X96531Y51000D02*
X100469D01*
X98500Y49031D02*
Y52969D01*
X96531Y31000D02*
X100469D01*
X98500Y29032D02*
Y32969D01*
X96531Y61000D02*
X100469D01*
X98500Y59031D02*
Y62968D01*
X96531Y41000D02*
X100469D01*
X98500Y39031D02*
Y42968D01*
X96531Y21000D02*
X100469D01*
X98500Y19031D02*
Y22968D01*
X6532Y181000D02*
X10469D01*
X8500Y179032D02*
Y182968D01*
X6532Y161000D02*
X10469D01*
X8500Y159031D02*
Y162969D01*
X6532Y171000D02*
X10469D01*
X8500Y169032D02*
Y172968D01*
X6532Y101000D02*
X10469D01*
X8500Y99032D02*
Y102969D01*
X6532Y141000D02*
X10469D01*
X8500Y139032D02*
Y142968D01*
X6532Y131000D02*
X10469D01*
X8500Y129032D02*
Y132968D01*
X6532Y111000D02*
X10469D01*
X8500Y109031D02*
Y112969D01*
X6532Y121000D02*
X10469D01*
X8500Y119032D02*
Y122968D01*
X6532Y151000D02*
X10469D01*
X8500Y149031D02*
Y152969D01*
X6532Y191000D02*
X10469D01*
X8500Y189032D02*
Y192968D01*
X96531Y111000D02*
X100469D01*
X98500Y109031D02*
Y112969D01*
X96531Y191000D02*
X100469D01*
X98500Y189032D02*
Y192968D01*
X96531Y181000D02*
X100469D01*
X98500Y179032D02*
Y182968D01*
X96531Y171000D02*
X100469D01*
X98500Y169032D02*
Y172968D01*
X96531Y161000D02*
X100469D01*
X98500Y159031D02*
Y162969D01*
X96531Y151000D02*
X100469D01*
X98500Y149031D02*
Y152969D01*
X96531Y141000D02*
X100469D01*
X98500Y139032D02*
Y142968D01*
X96531Y131000D02*
X100469D01*
X98500Y129032D02*
Y132968D01*
X96531Y121000D02*
X100469D01*
X98500Y119032D02*
Y122968D01*
X6532Y81000D02*
X10469D01*
X8500Y79031D02*
Y82968D01*
X6532Y11000D02*
X10469D01*
X8500Y9031D02*
Y12968D01*
X6532Y21000D02*
X10469D01*
X8500Y19031D02*
Y22968D01*
X6532Y31000D02*
X10469D01*
X8500Y29032D02*
Y32969D01*
X6532Y41000D02*
X10469D01*
X8500Y39031D02*
Y42968D01*
X6532Y51000D02*
X10469D01*
X8500Y49031D02*
Y52969D01*
X6532Y61000D02*
X10469D01*
X8500Y59031D02*
Y62968D01*
X6532Y71000D02*
X10469D01*
X8500Y69032D02*
Y72969D01*
X6532Y91000D02*
X10469D01*
X8500Y89031D02*
Y92968D01*
X7835Y217000D02*
X12165D01*
X10000Y214835D02*
Y219165D01*
X17835Y217000D02*
X22165D01*
X20000Y214835D02*
Y219165D01*
X27835Y217000D02*
X32165D01*
X30000Y214835D02*
Y219165D01*
X37835Y217000D02*
X42165D01*
X40000Y214835D02*
Y219165D01*
X47835Y217000D02*
X52165D01*
X50000Y214835D02*
Y219165D01*
X57835Y217000D02*
X62165D01*
X60000Y214835D02*
Y219165D01*
X155835Y235000D02*
X160165D01*
X158000Y232835D02*
Y237165D01*
X145835Y235000D02*
X150165D01*
X148000Y232835D02*
Y237165D01*
X145835Y245000D02*
X150165D01*
X148000Y242835D02*
Y247165D01*
X155835Y245000D02*
X160165D01*
X158000Y242835D02*
Y247165D01*
X157100Y59000D02*
X159900D01*
X158500Y57600D02*
Y60400D01*
X63100Y245700D02*
X65900D01*
X64500Y244300D02*
Y247100D01*
X21000Y121000D02*
X23800D01*
X22400Y119600D02*
Y122400D01*
X28600Y115100D02*
X31400D01*
X30000Y113700D02*
Y116500D01*
X137600Y171000D02*
X140400D01*
X139000Y169600D02*
Y172400D01*
X38600Y106200D02*
X41400D01*
X40000Y104800D02*
Y107600D01*
M02*
