G04*
G04 #@! TF.GenerationSoftware,Altium Limited,Altium Designer,24.4.1 (13)*
G04*
G04 Layer_Physical_Order=2*
G04 Layer_Color=16711680*
%FSLAX25Y25*%
%MOIN*%
G70*
G04*
G04 #@! TF.SameCoordinates,97D1044A-C35F-4CB3-83FE-F4252C381A68*
G04*
G04*
G04 #@! TF.FilePolarity,Positive*
G04*
G01*
G75*
%ADD10C,0.01575*%
%ADD35R,0.10000X0.16000*%
%ADD36R,0.16000X0.10000*%
%ADD37R,0.05984X0.05984*%
%ADD38C,0.05984*%
%ADD39R,0.05984X0.05984*%
%ADD40C,0.06299*%
%ADD41R,0.06299X0.06299*%
%ADD42R,0.06299X0.06299*%
%ADD43O,0.09843X0.07874*%
%ADD44R,0.09843X0.07874*%
%ADD45C,0.05000*%
G36*
X221746Y1754D02*
X109260D01*
X109209Y1819D01*
X108830Y2935D01*
X114448Y8552D01*
X114891Y9217D01*
X115047Y10000D01*
X115047Y10000D01*
Y54152D01*
X117188Y56293D01*
X118280Y55841D01*
Y54779D01*
X136721D01*
Y67220D01*
X129547D01*
Y69152D01*
X194848Y134453D01*
X196288D01*
X196429Y134114D01*
X197614Y132929D01*
X199162Y132287D01*
X200838D01*
X202386Y132929D01*
X203571Y134114D01*
X204213Y135662D01*
Y137338D01*
X203700Y138575D01*
X203573Y138891D01*
X203948Y140052D01*
X206448Y142552D01*
X206448Y142552D01*
X206891Y143217D01*
X207047Y144000D01*
Y179600D01*
X207047Y179600D01*
X206891Y180383D01*
X206448Y181048D01*
X206448Y181048D01*
X177248Y210248D01*
X176583Y210691D01*
X175800Y210847D01*
X175800Y210847D01*
X29048D01*
X28129Y211767D01*
X28798Y212768D01*
X29131Y212630D01*
X30869D01*
X32475Y213295D01*
X33705Y214525D01*
X34370Y216131D01*
Y217869D01*
X33705Y219475D01*
X32475Y220705D01*
X30869Y221370D01*
X29131D01*
X27525Y220705D01*
X26295Y219475D01*
X25630Y217869D01*
Y216787D01*
X25505Y216651D01*
X24449Y216213D01*
X24370Y216284D01*
Y217869D01*
X23705Y219475D01*
X22475Y220705D01*
X20869Y221370D01*
X19131D01*
X17525Y220705D01*
X16295Y219475D01*
X15630Y217869D01*
Y216131D01*
X16295Y214525D01*
X17525Y213295D01*
X19131Y212630D01*
X20869D01*
X21297Y212807D01*
X26752Y207352D01*
X27417Y206909D01*
X28200Y206753D01*
X55814D01*
X56266Y205662D01*
X52052Y201448D01*
X51609Y200783D01*
X51453Y200000D01*
X51453Y200000D01*
Y160348D01*
X44152Y153047D01*
X14319D01*
X13203Y154718D01*
X12347Y155290D01*
Y156710D01*
X13203Y157282D01*
X14343Y158988D01*
X14743Y161000D01*
X14343Y163012D01*
X13203Y164718D01*
X12347Y165290D01*
Y166710D01*
X13203Y167282D01*
X14343Y168988D01*
X14743Y171000D01*
X14343Y173012D01*
X13203Y174718D01*
X12347Y175290D01*
Y176710D01*
X13203Y177282D01*
X14343Y178988D01*
X14743Y181000D01*
X14343Y183012D01*
X13241Y184661D01*
X13358Y185231D01*
X13544Y185843D01*
X14642D01*
Y196158D01*
X2935D01*
X2358Y196158D01*
X1754Y197088D01*
Y265746D01*
X221746D01*
Y1754D01*
D02*
G37*
G36*
X202953Y178752D02*
Y170713D01*
X198683D01*
X163734Y205662D01*
X164186Y206753D01*
X174952D01*
X202953Y178752D01*
D02*
G37*
G36*
X195787Y167817D02*
Y162287D01*
X202953D01*
Y161048D01*
X201772Y160326D01*
X200838Y160713D01*
X199162D01*
X197614Y160071D01*
X196429Y158886D01*
X195787Y157338D01*
Y155662D01*
X196429Y154114D01*
X197614Y152929D01*
X199162Y152287D01*
X200838D01*
X201772Y152674D01*
X202953Y151952D01*
Y150736D01*
X201772Y150087D01*
X200794Y150492D01*
X200500D01*
Y146500D01*
X200000D01*
Y146000D01*
X196008D01*
Y145706D01*
X196413Y144728D01*
X195764Y143547D01*
X195000D01*
X194217Y143391D01*
X193552Y142948D01*
X193552Y142948D01*
X163652Y113047D01*
X104319D01*
X103203Y114718D01*
X102347Y115290D01*
Y116710D01*
X103203Y117282D01*
X104342Y118988D01*
X104743Y121000D01*
X104342Y123012D01*
X103203Y124718D01*
X102149Y125422D01*
X102147Y126841D01*
X103044Y127441D01*
X104135Y129074D01*
X104419Y130500D01*
X92581D01*
X92865Y129074D01*
X93956Y127441D01*
X94853Y126841D01*
X94851Y125422D01*
X93797Y124718D01*
X92681Y123047D01*
X25579D01*
X25554Y123108D01*
X24508Y124154D01*
X23140Y124721D01*
X21660D01*
X20292Y124154D01*
X19246Y123108D01*
X18679Y121740D01*
Y120260D01*
X19246Y118893D01*
X20292Y117846D01*
X21660Y117280D01*
X23140D01*
X24508Y117846D01*
X25554Y118893D01*
X25579Y118953D01*
X26921D01*
X27410Y117772D01*
X26846Y117208D01*
X26280Y115840D01*
Y114360D01*
X26846Y112993D01*
X27893Y111946D01*
X29260Y111380D01*
X30740D01*
X32107Y111946D01*
X33154Y112993D01*
X33179Y113053D01*
X58352D01*
X81852Y89552D01*
X81852Y89552D01*
X82517Y89109D01*
X83300Y88953D01*
X83300Y88953D01*
X92681D01*
X93797Y87282D01*
X94653Y86710D01*
Y85290D01*
X93797Y84718D01*
X92681Y83047D01*
X66048D01*
X43696Y105400D01*
X43720Y105460D01*
Y106940D01*
X43154Y108308D01*
X42107Y109354D01*
X40740Y109921D01*
X39260D01*
X37892Y109354D01*
X36846Y108308D01*
X36279Y106940D01*
Y105460D01*
X36846Y104093D01*
X37892Y103046D01*
X39260Y102480D01*
X40740D01*
X40800Y102505D01*
X63752Y79552D01*
X63752Y79552D01*
X64417Y79109D01*
X65200Y78953D01*
X92681D01*
X93797Y77282D01*
X94653Y76710D01*
Y75290D01*
X93797Y74718D01*
X92658Y73012D01*
X92257Y71000D01*
X92658Y68988D01*
X93797Y67282D01*
X94653Y66710D01*
Y65290D01*
X93797Y64718D01*
X92658Y63012D01*
X92257Y61000D01*
X92658Y58988D01*
X93797Y57282D01*
X94653Y56710D01*
Y55290D01*
X93797Y54718D01*
X92658Y53012D01*
X92257Y51000D01*
X92658Y48988D01*
X93797Y47282D01*
X94653Y46710D01*
Y45290D01*
X93797Y44718D01*
X92658Y43012D01*
X92257Y41000D01*
X92658Y38988D01*
X93797Y37282D01*
X94653Y36710D01*
Y35290D01*
X93797Y34718D01*
X92658Y33012D01*
X92257Y31000D01*
X92658Y28988D01*
X93797Y27282D01*
X94653Y26710D01*
Y25290D01*
X93797Y24718D01*
X92658Y23012D01*
X92257Y21000D01*
X92658Y18988D01*
X93797Y17282D01*
X94653Y16710D01*
Y15290D01*
X93797Y14718D01*
X92658Y13012D01*
X92257Y11000D01*
X92658Y8988D01*
X93766Y7328D01*
X93665Y6821D01*
X93461Y6147D01*
X13539D01*
X13335Y6821D01*
X13234Y7328D01*
X14343Y8988D01*
X14743Y11000D01*
X14343Y13012D01*
X13203Y14718D01*
X12347Y15290D01*
Y16710D01*
X13203Y17282D01*
X14343Y18988D01*
X14743Y21000D01*
X14343Y23012D01*
X13203Y24718D01*
X12347Y25290D01*
Y26710D01*
X13203Y27282D01*
X14343Y28988D01*
X14743Y31000D01*
X14343Y33012D01*
X13203Y34718D01*
X12347Y35290D01*
Y36710D01*
X13203Y37282D01*
X14343Y38988D01*
X14743Y41000D01*
X14343Y43012D01*
X13203Y44718D01*
X12347Y45290D01*
Y46710D01*
X13203Y47282D01*
X14343Y48988D01*
X14743Y51000D01*
X14343Y53012D01*
X13203Y54718D01*
X12149Y55422D01*
X12147Y56841D01*
X13044Y57441D01*
X14135Y59074D01*
X14419Y60500D01*
X8500D01*
Y61500D01*
X14419D01*
X14135Y62926D01*
X13044Y64559D01*
X12147Y65158D01*
X12149Y66578D01*
X13203Y67282D01*
X14343Y68988D01*
X14743Y71000D01*
X14343Y73012D01*
X13203Y74718D01*
X12347Y75290D01*
Y76710D01*
X13203Y77282D01*
X14343Y78988D01*
X14743Y81000D01*
X14343Y83012D01*
X13203Y84718D01*
X12347Y85290D01*
Y86710D01*
X13203Y87282D01*
X14343Y88988D01*
X14743Y91000D01*
X14343Y93012D01*
X13203Y94718D01*
X12347Y95290D01*
Y96710D01*
X13203Y97282D01*
X14343Y98988D01*
X14743Y101000D01*
X14343Y103012D01*
X13203Y104718D01*
X12347Y105290D01*
Y106710D01*
X13203Y107282D01*
X14343Y108988D01*
X14743Y111000D01*
X14343Y113012D01*
X13203Y114718D01*
X12347Y115290D01*
Y116710D01*
X13203Y117282D01*
X14343Y118988D01*
X14743Y121000D01*
X14343Y123012D01*
X13203Y124718D01*
X12347Y125290D01*
Y126710D01*
X13203Y127282D01*
X14343Y128988D01*
X14743Y131000D01*
X14343Y133012D01*
X13203Y134718D01*
X12347Y135290D01*
Y136710D01*
X13203Y137282D01*
X14343Y138988D01*
X14743Y141000D01*
X14343Y143012D01*
X13203Y144718D01*
X12347Y145290D01*
Y146710D01*
X13203Y147282D01*
X14319Y148953D01*
X45000D01*
X45000Y148953D01*
X45783Y149109D01*
X46448Y149552D01*
X54948Y158052D01*
X54948Y158052D01*
X55391Y158717D01*
X55547Y159500D01*
X55547Y159500D01*
Y199152D01*
X59848Y203453D01*
X160152D01*
X195787Y167817D01*
D02*
G37*
G36*
X93797Y117282D02*
X94653Y116710D01*
Y115290D01*
X93797Y114718D01*
X92658Y113012D01*
X92257Y111000D01*
X92658Y108988D01*
X93797Y107282D01*
X94653Y106710D01*
Y105290D01*
X93797Y104718D01*
X92658Y103012D01*
X92257Y101000D01*
X92658Y98988D01*
X93797Y97282D01*
X94653Y96710D01*
Y95290D01*
X93797Y94718D01*
X92681Y93047D01*
X84148D01*
X60648Y116548D01*
X59983Y116991D01*
X59200Y117147D01*
X59200Y117147D01*
X33509D01*
X33012Y117799D01*
X33534Y118953D01*
X92681D01*
X93797Y117282D01*
D02*
G37*
G36*
X162466Y107862D02*
X126052Y71448D01*
X125609Y70783D01*
X125453Y70000D01*
X125453Y70000D01*
Y67220D01*
X118280D01*
Y62904D01*
X118217Y62891D01*
X117552Y62448D01*
X111552Y56448D01*
X111109Y55783D01*
X110953Y55000D01*
X110953Y55000D01*
Y10848D01*
X106252Y6147D01*
X103539D01*
X103335Y6821D01*
X103234Y7328D01*
X104342Y8988D01*
X104743Y11000D01*
X104342Y13012D01*
X103203Y14718D01*
X102347Y15290D01*
Y16710D01*
X103203Y17282D01*
X104342Y18988D01*
X104743Y21000D01*
X104342Y23012D01*
X103203Y24718D01*
X102347Y25290D01*
Y26710D01*
X103203Y27282D01*
X104342Y28988D01*
X104743Y31000D01*
X104342Y33012D01*
X103203Y34718D01*
X102347Y35290D01*
Y36710D01*
X103203Y37282D01*
X104342Y38988D01*
X104743Y41000D01*
X104342Y43012D01*
X103203Y44718D01*
X102347Y45290D01*
Y46710D01*
X103203Y47282D01*
X104342Y48988D01*
X104743Y51000D01*
X104342Y53012D01*
X103203Y54718D01*
X102347Y55290D01*
Y56710D01*
X103203Y57282D01*
X104342Y58988D01*
X104743Y61000D01*
X104342Y63012D01*
X103203Y64718D01*
X102347Y65290D01*
Y66710D01*
X103203Y67282D01*
X104342Y68988D01*
X104743Y71000D01*
X104342Y73012D01*
X103203Y74718D01*
X102347Y75290D01*
Y76710D01*
X103203Y77282D01*
X104342Y78988D01*
X104743Y81000D01*
X104342Y83012D01*
X103203Y84718D01*
X102347Y85290D01*
Y86710D01*
X103203Y87282D01*
X104342Y88988D01*
X104743Y91000D01*
X104342Y93012D01*
X103203Y94718D01*
X102347Y95290D01*
Y96710D01*
X103203Y97282D01*
X104342Y98988D01*
X104743Y101000D01*
X104342Y103012D01*
X103203Y104718D01*
X102347Y105290D01*
Y106710D01*
X103203Y107282D01*
X104319Y108953D01*
X162014D01*
X162466Y107862D01*
D02*
G37*
G36*
X3797Y7282D02*
X5503Y6142D01*
X6453Y5600D01*
X6609Y4817D01*
X7052Y4152D01*
X8269Y2935D01*
X7891Y1819D01*
X7840Y1754D01*
X1754D01*
Y8214D01*
X2935Y8572D01*
X3797Y7282D01*
D02*
G37*
%LPC*%
G36*
X204370Y255370D02*
X195630D01*
Y253047D01*
X165248D01*
X163895Y254401D01*
X163230Y254844D01*
X162447Y255000D01*
X162447Y255000D01*
X61825D01*
X61825Y255000D01*
X61041Y254844D01*
X60377Y254401D01*
X60377Y254401D01*
X58544Y252568D01*
X58101Y251904D01*
X57945Y251120D01*
X57945Y251120D01*
Y245400D01*
X57945Y245400D01*
X57953Y245360D01*
Y221370D01*
X55630D01*
Y212630D01*
X64370D01*
Y221370D01*
X62047D01*
Y241411D01*
X63228Y242200D01*
X63760Y241980D01*
X65240D01*
X66607Y242546D01*
X67654Y243593D01*
X68221Y244960D01*
Y246440D01*
X68195Y246500D01*
X69648Y247953D01*
X81264D01*
X81913Y246772D01*
X81508Y245794D01*
Y245500D01*
X85500D01*
X89492D01*
Y245794D01*
X89087Y246772D01*
X89736Y247953D01*
X90952D01*
X91674Y246772D01*
X91287Y245838D01*
Y244162D01*
X91929Y242614D01*
X93114Y241429D01*
X94662Y240787D01*
X96338D01*
X97886Y241429D01*
X99071Y242614D01*
X99713Y244162D01*
Y245838D01*
X99441Y246493D01*
X100442Y247162D01*
X101287Y246317D01*
Y240787D01*
X109713D01*
Y249213D01*
X104522D01*
X104124Y249725D01*
X104703Y250906D01*
X141767D01*
X142219Y249815D01*
X141352Y248948D01*
X140909Y248283D01*
X140753Y247500D01*
X140753Y247500D01*
Y240200D01*
X140753Y240200D01*
X140909Y239417D01*
X141352Y238752D01*
X143630Y236475D01*
Y230630D01*
X152370D01*
Y239370D01*
X147284D01*
X147242Y239449D01*
X147950Y240630D01*
X148869D01*
X150475Y241295D01*
X151705Y242525D01*
X152370Y244131D01*
Y245869D01*
X152075Y246581D01*
X152754Y247650D01*
X153246D01*
X153925Y246581D01*
X153630Y245869D01*
Y244131D01*
X154295Y242525D01*
X155525Y241295D01*
X157131Y240630D01*
X158869D01*
X160475Y241295D01*
X161705Y242525D01*
X162370Y244131D01*
Y244464D01*
X163551Y244954D01*
X168952Y239552D01*
X168952Y239552D01*
X169617Y239109D01*
X170400Y238953D01*
X196118D01*
X196295Y238525D01*
X197525Y237295D01*
X199131Y236630D01*
X200869D01*
X202475Y237295D01*
X203705Y238525D01*
X204370Y240131D01*
Y241869D01*
X203705Y243475D01*
X202475Y244705D01*
X200869Y245370D01*
X199131D01*
X197525Y244705D01*
X196295Y243475D01*
X196118Y243047D01*
X171248D01*
X166434Y247862D01*
X166886Y248953D01*
X195630D01*
Y246630D01*
X204370D01*
Y255370D01*
D02*
G37*
G36*
X89492Y244500D02*
X86000D01*
Y241008D01*
X86294D01*
X87761Y241616D01*
X88884Y242739D01*
X89492Y244206D01*
Y244500D01*
D02*
G37*
G36*
X85000D02*
X81508D01*
Y244206D01*
X82116Y242739D01*
X83239Y241616D01*
X84706Y241008D01*
X85000D01*
Y244500D01*
D02*
G37*
G36*
X158869Y239370D02*
X157131D01*
X155525Y238705D01*
X154295Y237475D01*
X153630Y235869D01*
Y234131D01*
X154295Y232525D01*
X155525Y231295D01*
X157131Y230630D01*
X158869D01*
X159298Y230807D01*
X160552Y229552D01*
X160552Y229552D01*
X161217Y229109D01*
X162000Y228953D01*
X196118D01*
X196295Y228525D01*
X197525Y227295D01*
X199131Y226630D01*
X200869D01*
X202475Y227295D01*
X203705Y228525D01*
X204370Y230131D01*
Y231869D01*
X203705Y233475D01*
X202475Y234705D01*
X200869Y235370D01*
X199131D01*
X197525Y234705D01*
X196295Y233475D01*
X196118Y233047D01*
X163081D01*
X162320Y234010D01*
X162370Y234131D01*
Y235869D01*
X161705Y237475D01*
X160475Y238705D01*
X158869Y239370D01*
D02*
G37*
G36*
X200825Y225150D02*
X200500D01*
Y221500D01*
X204150D01*
Y221825D01*
X203518Y223351D01*
X202351Y224518D01*
X200825Y225150D01*
D02*
G37*
G36*
X199500D02*
X199175D01*
X197649Y224518D01*
X196482Y223351D01*
X195850Y221825D01*
Y221500D01*
X199500D01*
Y225150D01*
D02*
G37*
G36*
X50825Y221150D02*
X50500D01*
Y217500D01*
X54150D01*
Y217825D01*
X53518Y219351D01*
X52351Y220518D01*
X50825Y221150D01*
D02*
G37*
G36*
X49500D02*
X49175D01*
X47649Y220518D01*
X46482Y219351D01*
X45850Y217825D01*
Y217500D01*
X49500D01*
Y221150D01*
D02*
G37*
G36*
X204150Y220500D02*
X200500D01*
Y216850D01*
X200825D01*
X202351Y217482D01*
X203518Y218649D01*
X204150Y220175D01*
Y220500D01*
D02*
G37*
G36*
X199500D02*
X195850D01*
Y220175D01*
X196482Y218649D01*
X197649Y217482D01*
X199175Y216850D01*
X199500D01*
Y220500D01*
D02*
G37*
G36*
X54150Y216500D02*
X50500D01*
Y212850D01*
X50825D01*
X52351Y213482D01*
X53518Y214649D01*
X54150Y216175D01*
Y216500D01*
D02*
G37*
G36*
X49500D02*
X45850D01*
Y216175D01*
X46482Y214649D01*
X47649Y213482D01*
X49175Y212850D01*
X49500D01*
Y216500D01*
D02*
G37*
G36*
X40869Y221370D02*
X39131D01*
X37525Y220705D01*
X36295Y219475D01*
X35630Y217869D01*
Y216131D01*
X36295Y214525D01*
X37525Y213295D01*
X39131Y212630D01*
X40869D01*
X42475Y213295D01*
X43705Y214525D01*
X44370Y216131D01*
Y217869D01*
X43705Y219475D01*
X42475Y220705D01*
X40869Y221370D01*
D02*
G37*
G36*
X10869D02*
X9131D01*
X7525Y220705D01*
X6295Y219475D01*
X5630Y217869D01*
Y216131D01*
X6295Y214525D01*
X7525Y213295D01*
X9131Y212630D01*
X10869D01*
X12475Y213295D01*
X13705Y214525D01*
X14370Y216131D01*
Y217869D01*
X13705Y219475D01*
X12475Y220705D01*
X10869Y221370D01*
D02*
G37*
G36*
X200869Y215370D02*
X199131D01*
X197525Y214705D01*
X196295Y213475D01*
X195630Y211869D01*
Y210131D01*
X196295Y208525D01*
X197525Y207295D01*
X199131Y206630D01*
X200869D01*
X202475Y207295D01*
X203705Y208525D01*
X204370Y210131D01*
Y211869D01*
X203705Y213475D01*
X202475Y214705D01*
X200869Y215370D01*
D02*
G37*
G36*
X153500Y60000D02*
X148000D01*
Y51500D01*
X153500D01*
Y60000D01*
D02*
G37*
G36*
X147000D02*
X141500D01*
Y51500D01*
X147000D01*
Y60000D01*
D02*
G37*
G36*
X182325Y51150D02*
X182000D01*
Y47500D01*
X185650D01*
Y47825D01*
X185018Y49351D01*
X183851Y50518D01*
X182325Y51150D01*
D02*
G37*
G36*
X181000D02*
X180675D01*
X179149Y50518D01*
X177982Y49351D01*
X177350Y47825D01*
Y47500D01*
X181000D01*
Y51150D01*
D02*
G37*
G36*
X185650Y46500D02*
X182000D01*
Y42850D01*
X182325D01*
X183851Y43482D01*
X185018Y44649D01*
X185650Y46175D01*
Y46500D01*
D02*
G37*
G36*
X181000D02*
X177350D01*
Y46175D01*
X177982Y44649D01*
X179149Y43482D01*
X180675Y42850D01*
X181000D01*
Y46500D01*
D02*
G37*
G36*
X202369Y51370D02*
X200631D01*
X199025Y50705D01*
X197795Y49475D01*
X197130Y47869D01*
Y46131D01*
X197795Y44525D01*
X199025Y43295D01*
X200631Y42630D01*
X202369D01*
X203975Y43295D01*
X205205Y44525D01*
X205870Y46131D01*
Y47869D01*
X205205Y49475D01*
X203975Y50705D01*
X202369Y51370D01*
D02*
G37*
G36*
X192369D02*
X190631D01*
X189025Y50705D01*
X187795Y49475D01*
X187130Y47869D01*
Y46131D01*
X187795Y44525D01*
X189025Y43295D01*
X190631Y42630D01*
X192369D01*
X193975Y43295D01*
X195205Y44525D01*
X195870Y46131D01*
Y47869D01*
X195205Y49475D01*
X193975Y50705D01*
X192369Y51370D01*
D02*
G37*
G36*
X159240Y62721D02*
X157760D01*
X156393Y62154D01*
X155346Y61107D01*
X154780Y59740D01*
Y58260D01*
X155346Y56893D01*
X156393Y55846D01*
X156453Y55821D01*
Y49512D01*
X156453Y49512D01*
X156609Y48728D01*
X157052Y48064D01*
X157975Y47142D01*
X157975Y47142D01*
X158639Y46698D01*
X159423Y46542D01*
X167130D01*
Y42630D01*
X175870D01*
Y51370D01*
X167130D01*
Y50637D01*
X160547D01*
Y55821D01*
X160608Y55846D01*
X161654Y56893D01*
X162221Y58260D01*
Y59740D01*
X161654Y61107D01*
X160608Y62154D01*
X159240Y62721D01*
D02*
G37*
G36*
X153500Y50500D02*
X148000D01*
Y42000D01*
X153500D01*
Y50500D01*
D02*
G37*
G36*
X147000D02*
X141500D01*
Y42000D01*
X147000D01*
Y50500D01*
D02*
G37*
G36*
X136500Y42000D02*
X128000D01*
Y36500D01*
X136500D01*
Y42000D01*
D02*
G37*
G36*
X127000D02*
X118500D01*
Y36500D01*
X127000D01*
Y42000D01*
D02*
G37*
G36*
X136500Y35500D02*
X128000D01*
Y30000D01*
X136500D01*
Y35500D01*
D02*
G37*
G36*
X127000D02*
X118500D01*
Y30000D01*
X127000D01*
Y35500D01*
D02*
G37*
G36*
X99484Y196034D02*
X99000D01*
Y191500D01*
X104419D01*
X104135Y192926D01*
X103044Y194559D01*
X101411Y195651D01*
X99484Y196034D01*
D02*
G37*
G36*
X98000D02*
X97516D01*
X95589Y195651D01*
X93956Y194559D01*
X92865Y192926D01*
X92581Y191500D01*
X98000D01*
Y196034D01*
D02*
G37*
G36*
X104419Y190500D02*
X92581D01*
X92865Y189074D01*
X93956Y187441D01*
X94853Y186841D01*
X94851Y185422D01*
X93797Y184718D01*
X92658Y183012D01*
X92257Y181000D01*
X92658Y178988D01*
X93797Y177282D01*
X94653Y176710D01*
Y175290D01*
X93797Y174718D01*
X92658Y173012D01*
X92257Y171000D01*
X92658Y168988D01*
X93797Y167282D01*
X94653Y166710D01*
Y165290D01*
X93797Y164718D01*
X92658Y163012D01*
X92257Y161000D01*
X92658Y158988D01*
X93797Y157282D01*
X94653Y156710D01*
Y155290D01*
X93797Y154718D01*
X92658Y153012D01*
X92257Y151000D01*
X92658Y148988D01*
X93797Y147282D01*
X94653Y146710D01*
Y145290D01*
X93797Y144718D01*
X92658Y143012D01*
X92257Y141000D01*
X92658Y138988D01*
X93797Y137282D01*
X94851Y136578D01*
X94853Y135159D01*
X93956Y134559D01*
X92865Y132926D01*
X92581Y131500D01*
X104419D01*
X104135Y132926D01*
X103044Y134559D01*
X102147Y135159D01*
X102149Y136578D01*
X103203Y137282D01*
X104342Y138988D01*
X104743Y141000D01*
X104342Y143012D01*
X103203Y144718D01*
X102347Y145290D01*
Y146710D01*
X103203Y147282D01*
X104342Y148988D01*
X104743Y151000D01*
X104342Y153012D01*
X103203Y154718D01*
X102347Y155290D01*
Y156710D01*
X103203Y157282D01*
X104342Y158988D01*
X104743Y161000D01*
X104342Y163012D01*
X103203Y164718D01*
X102347Y165290D01*
Y166710D01*
X103203Y167282D01*
X104319Y168953D01*
X135821D01*
X135846Y168893D01*
X136892Y167846D01*
X138260Y167280D01*
X139740D01*
X141107Y167846D01*
X142154Y168893D01*
X142720Y170260D01*
Y171740D01*
X142154Y173108D01*
X141107Y174154D01*
X139740Y174721D01*
X138260D01*
X136892Y174154D01*
X135846Y173108D01*
X135821Y173047D01*
X104319D01*
X103203Y174718D01*
X102347Y175290D01*
Y176710D01*
X103203Y177282D01*
X104342Y178988D01*
X104743Y181000D01*
X104342Y183012D01*
X103203Y184718D01*
X102149Y185422D01*
X102147Y186841D01*
X103044Y187441D01*
X104135Y189074D01*
X104419Y190500D01*
D02*
G37*
G36*
X199500Y150492D02*
X199206D01*
X197739Y149884D01*
X196616Y148761D01*
X196008Y147294D01*
Y147000D01*
X199500D01*
Y150492D01*
D02*
G37*
%LPD*%
D10*
X158500Y49512D02*
Y59000D01*
Y49512D02*
X159423Y48589D01*
X169911D01*
X171500Y47000D01*
X147500Y38500D02*
Y41800D01*
X100500Y250000D02*
X105500Y245000D01*
X68800Y250000D02*
X100500D01*
X64500Y245700D02*
X68800Y250000D01*
X145000Y36000D02*
X147500Y38500D01*
X127500Y36000D02*
X145000D01*
X161000Y205500D02*
X200000Y166500D01*
X59000Y205500D02*
X161000D01*
X53500Y200000D02*
X59000Y205500D01*
X53500Y159500D02*
Y200000D01*
X45000Y151000D02*
X53500Y159500D01*
X8500Y151000D02*
X45000D01*
X20000Y217000D02*
X28200Y208800D01*
X175800D01*
X205000Y179600D01*
Y144000D02*
Y179600D01*
X202500Y141500D02*
X205000Y144000D01*
X195000Y141500D02*
X202500D01*
X164500Y111000D02*
X195000Y141500D01*
X98500Y111000D02*
X164500D01*
X22400Y121000D02*
X98500D01*
X142800Y240200D02*
X148000Y235000D01*
X142800Y240200D02*
Y247500D01*
X145458Y250158D01*
X161242D01*
X170400Y241000D01*
X200000D01*
X162000Y231000D02*
X200000D01*
X158000Y235000D02*
X162000Y231000D01*
X147500Y41800D02*
Y51000D01*
Y41800D02*
X176300D01*
X181500Y47000D01*
X119000Y61000D02*
X127500D01*
X113000Y55000D02*
X119000Y61000D01*
X113000Y10000D02*
Y55000D01*
X107100Y4100D02*
X113000Y10000D01*
X10000Y4100D02*
X107100D01*
X8500Y5600D02*
X10000Y4100D01*
X8500Y5600D02*
Y11000D01*
X109500Y221000D02*
X200000D01*
X85500Y245000D02*
X109500Y221000D01*
X60000Y217000D02*
Y245392D01*
X59992Y245400D02*
X60000Y245392D01*
X59992Y245400D02*
Y251120D01*
X61825Y252953D01*
X162447D01*
X164400Y251000D01*
X200000D01*
X83300Y91000D02*
X98500D01*
X59200Y115100D02*
X83300Y91000D01*
X30000Y115100D02*
X59200D01*
X194000Y136500D02*
X200000D01*
X127500Y70000D02*
X194000Y136500D01*
X127500Y61000D02*
Y70000D01*
X98500Y171000D02*
X139000D01*
X65200Y81000D02*
X98500D01*
X40000Y106200D02*
X65200Y81000D01*
X50000Y217000D02*
X55200Y211800D01*
X80000D01*
X85500Y217300D01*
Y245000D01*
D35*
X147500Y51000D02*
D03*
D36*
X127500Y36000D02*
D03*
Y61000D02*
D03*
D37*
X200000Y166500D02*
D03*
D38*
Y156500D02*
D03*
Y146500D02*
D03*
Y136500D02*
D03*
X95500Y245000D02*
D03*
X85500D02*
D03*
D39*
X105500D02*
D03*
D40*
X200000Y211000D02*
D03*
Y221000D02*
D03*
Y231000D02*
D03*
Y241000D02*
D03*
X201500Y47000D02*
D03*
X191500D02*
D03*
X181500D02*
D03*
X10000Y217000D02*
D03*
X20000D02*
D03*
X30000D02*
D03*
X40000D02*
D03*
X50000D02*
D03*
X158000Y235000D02*
D03*
X148000Y245000D02*
D03*
X158000D02*
D03*
D41*
X200000Y251000D02*
D03*
D42*
X171500Y47000D02*
D03*
X60000Y217000D02*
D03*
X148000Y235000D02*
D03*
D43*
X98500Y71000D02*
D03*
Y91000D02*
D03*
Y101000D02*
D03*
Y81000D02*
D03*
Y11000D02*
D03*
Y51000D02*
D03*
Y31000D02*
D03*
Y61000D02*
D03*
Y41000D02*
D03*
Y21000D02*
D03*
X8500Y181000D02*
D03*
Y161000D02*
D03*
Y171000D02*
D03*
Y101000D02*
D03*
Y141000D02*
D03*
Y131000D02*
D03*
Y111000D02*
D03*
Y121000D02*
D03*
Y151000D02*
D03*
X98500Y111000D02*
D03*
Y191000D02*
D03*
Y181000D02*
D03*
Y171000D02*
D03*
Y161000D02*
D03*
Y151000D02*
D03*
Y141000D02*
D03*
Y131000D02*
D03*
Y121000D02*
D03*
X8500Y81000D02*
D03*
Y11000D02*
D03*
Y21000D02*
D03*
Y31000D02*
D03*
Y41000D02*
D03*
Y51000D02*
D03*
Y61000D02*
D03*
Y71000D02*
D03*
Y91000D02*
D03*
D44*
Y191000D02*
D03*
D45*
X158500Y59000D02*
D03*
X64500Y245700D02*
D03*
X22400Y121000D02*
D03*
X30000Y115100D02*
D03*
X139000Y171000D02*
D03*
X40000Y106200D02*
D03*
M02*
