M48
;Layer_Color=9474304
;FILE_FORMAT=2:5
INCH,LZ
;TYPE=PLATED
T01F00S00C0.02800
T02F00S00C0.03937
T03F00S00C0.04016
T04F00S00C0.04331
%
T01
X01585Y0059
X0139Y0171
X004Y01062
X003Y01151
X00224Y0121
X00645Y02457
T02
X00085Y0011
Y0021
Y0031
Y0041
Y0051
X00985
Y0041
Y0031
Y0021
Y0011
Y0061
Y0071
Y0081
Y0091
Y0101
Y0111
Y0121
Y0131
Y0141
Y0151
Y0161
Y0171
Y0181
Y0191
X00085
Y0181
Y0171
Y0161
Y0151
Y0141
Y0131
Y0121
Y0111
Y0101
Y0091
Y0081
Y0071
Y0061
T03
X02Y01365
Y01465
Y01565
Y01665
X01055Y0245
X00955
X00855
T04
X01715Y0047
X01815
X01915
X02015
X02Y0211
X005Y0217
X004
X003
X002
X001
X006
X0148Y0235
X0158
Y0245
X0148
X02Y0241
Y0231
Y0221
Y0251
M30
