G04*
G04 #@! TF.GenerationSoftware,Altium Limited,Altium Designer,24.4.1 (13)*
G04*
G04 Layer_Color=65535*
%FSLAX25Y25*%
%MOIN*%
G70*
G04*
G04 #@! TF.SameCoordinates,97D1044A-C35F-4CB3-83FE-F4252C381A68*
G04*
G04*
G04 #@! TF.FilePolarity,Positive*
G04*
G01*
G75*
%ADD10C,0.01575*%
%ADD11C,0.00700*%
%ADD12C,0.00787*%
%ADD13C,0.00800*%
%ADD14C,0.01000*%
%ADD15C,0.00600*%
D10*
X162894Y74000D02*
G03*
X162894Y74000I-394J0D01*
G01*
D11*
X112500Y13000D02*
X145500D01*
Y6000D02*
Y60500D01*
X112500Y6000D02*
Y60500D01*
X145500D01*
X112500Y6000D02*
X145500D01*
D12*
X195000Y130515D02*
X205000D01*
X195000D02*
Y172484D01*
X205000Y130515D02*
Y172484D01*
X195000D02*
X205000D01*
X195000Y161500D02*
X205000D01*
X79515Y250000D02*
X111484D01*
X79515Y240000D02*
Y250000D01*
Y240000D02*
X111484D01*
Y250000D01*
X100500Y240000D02*
Y250000D01*
X195000Y256000D02*
X205000D01*
Y206000D02*
Y256000D01*
X195000Y206000D02*
Y256000D01*
Y206000D02*
X205000D01*
X195000Y246000D02*
X205000D01*
X176500Y42000D02*
Y52000D01*
X166500Y42000D02*
Y52000D01*
X206500D01*
X166500Y42000D02*
X206500D01*
Y52000D01*
X186189Y70945D02*
Y89055D01*
X159811D02*
X186189D01*
X159811Y70945D02*
X186189D01*
X159811D02*
Y89055D01*
X137900Y103500D02*
X140000D01*
Y82500D02*
Y103500D01*
X133100Y91600D02*
Y94400D01*
X138800Y91600D02*
Y94400D01*
X132000Y82500D02*
X140000D01*
X132000D02*
Y103500D01*
X137900D01*
X120400D02*
X122500D01*
Y82500D02*
Y103500D01*
X115600Y91600D02*
Y94400D01*
X121300Y91600D02*
Y94400D01*
X114500Y82500D02*
X122500D01*
X114500D02*
Y103500D01*
X120400D01*
X58333Y254239D02*
X60000Y255906D01*
X50000D02*
X51667Y254239D01*
X48333D02*
X50000Y255906D01*
X60000D02*
X61667Y254239D01*
X63167Y223072D02*
X64833Y224739D01*
X5000Y222906D02*
X65000D01*
Y232906D01*
X5000Y222906D02*
Y232906D01*
X65000D01*
X61667Y233006D02*
Y254239D01*
X58333Y232906D02*
Y254239D01*
X51667Y233006D02*
Y254239D01*
X48333Y233006D02*
Y254239D01*
X38333D02*
X40000Y255906D01*
X30000D02*
X31667Y254239D01*
X28333D02*
X30000Y255906D01*
X40000D02*
X41667Y254239D01*
Y233006D02*
Y254239D01*
X38333Y232906D02*
Y254239D01*
X31667Y233006D02*
Y254239D01*
X28333Y233006D02*
Y254239D01*
X18333D02*
X20000Y255906D01*
X10000D02*
X11667Y254239D01*
X8333D02*
X10000Y255906D01*
X20000D02*
X21667Y254239D01*
Y233006D02*
Y254239D01*
X18333Y232906D02*
Y254239D01*
X11667Y233006D02*
Y254239D01*
X8333Y233006D02*
Y254239D01*
X153000Y230000D02*
Y240000D01*
X143000D02*
X153000D01*
X143000Y230000D02*
Y250000D01*
X163000D01*
Y230000D02*
Y250000D01*
X143000Y230000D02*
X163000D01*
D13*
X123000Y209500D02*
X143000D01*
X123000Y185500D02*
X143000D01*
X147000Y205500D02*
X149000Y203500D01*
X143000Y209500D02*
X147000Y205500D01*
Y189500D02*
X149000Y191500D01*
X143000Y185500D02*
X147000Y189500D01*
X122500Y154000D02*
X142500D01*
X122500Y130000D02*
X142500D01*
X146500Y150000D02*
X148500Y148000D01*
X142500Y154000D02*
X146500Y150000D01*
Y134000D02*
X148500Y136000D01*
X142500Y130000D02*
X146500Y134000D01*
X21666Y170332D02*
X20999Y170999D01*
X19667D01*
X19000Y170332D01*
Y169666D01*
X19667Y168999D01*
X20999D01*
X21666Y168333D01*
Y167666D01*
X20999Y167000D01*
X19667D01*
X19000Y167666D01*
X22999Y167000D02*
Y170999D01*
X24998D01*
X25664Y170332D01*
Y168999D01*
X24998Y168333D01*
X22999D01*
X21666Y30332D02*
X20999Y30999D01*
X19667D01*
X19000Y30332D01*
Y29666D01*
X19667Y28999D01*
X20999D01*
X21666Y28333D01*
Y27666D01*
X20999Y27000D01*
X19667D01*
X19000Y27666D01*
X22999Y30999D02*
Y27000D01*
X24998D01*
X25664Y27666D01*
Y30332D01*
X24998Y30999D01*
X22999D01*
X26997Y30332D02*
X27664Y30999D01*
X28997D01*
X29663Y30332D01*
Y29666D01*
X28997Y28999D01*
X28330D01*
X28997D01*
X29663Y28333D01*
Y27666D01*
X28997Y27000D01*
X27664D01*
X26997Y27666D01*
X21666Y39832D02*
X20999Y40499D01*
X19667D01*
X19000Y39832D01*
Y39166D01*
X19667Y38499D01*
X20999D01*
X21666Y37833D01*
Y37166D01*
X20999Y36500D01*
X19667D01*
X19000Y37166D01*
X22999Y40499D02*
Y36500D01*
X24998D01*
X25664Y37166D01*
Y39832D01*
X24998Y40499D01*
X22999D01*
X29663Y36500D02*
X26997D01*
X29663Y39166D01*
Y39832D01*
X28997Y40499D01*
X27664D01*
X26997Y39832D01*
X21666Y129832D02*
X20999Y130499D01*
X19667D01*
X19000Y129832D01*
Y127166D01*
X19667Y126500D01*
X20999D01*
X21666Y127166D01*
Y128499D01*
X20333D01*
X22999Y129832D02*
X23665Y130499D01*
X24998D01*
X25664Y129832D01*
Y129166D01*
X24998Y128499D01*
X24332D01*
X24998D01*
X25664Y127833D01*
Y127166D01*
X24998Y126500D01*
X23665D01*
X22999Y127166D01*
X29663Y126500D02*
X26997D01*
X29663Y129166D01*
Y129832D01*
X28997Y130499D01*
X27664D01*
X26997Y129832D01*
X81346Y19832D02*
X80679Y20499D01*
X79347D01*
X78680Y19832D01*
Y19166D01*
X79347Y18499D01*
X80679D01*
X81346Y17833D01*
Y17166D01*
X80679Y16500D01*
X79347D01*
X78680Y17166D01*
X82679Y20499D02*
Y16500D01*
X84678D01*
X85344Y17166D01*
Y19832D01*
X84678Y20499D01*
X82679D01*
X86677Y19832D02*
X87344Y20499D01*
X88677D01*
X89343Y19832D01*
Y17166D01*
X88677Y16500D01*
X87344D01*
X86677Y17166D01*
Y19832D01*
X81536Y10332D02*
X80869Y10999D01*
X79536D01*
X78870Y10332D01*
Y7666D01*
X79536Y7000D01*
X80869D01*
X81536Y7666D01*
X82869Y10999D02*
Y7000D01*
X85535D01*
X86867Y10999D02*
Y7000D01*
Y8333D01*
X89533Y10999D01*
X87534Y8999D01*
X89533Y7000D01*
X21666Y139332D02*
X20999Y139999D01*
X19667D01*
X19000Y139332D01*
Y136667D01*
X19667Y136000D01*
X20999D01*
X21666Y136667D01*
Y137999D01*
X20333D01*
X22999Y139332D02*
X23665Y139999D01*
X24998D01*
X25664Y139332D01*
Y138666D01*
X24998Y137999D01*
X24332D01*
X24998D01*
X25664Y137333D01*
Y136667D01*
X24998Y136000D01*
X23665D01*
X22999Y136667D01*
X29663Y139999D02*
X26997D01*
Y137999D01*
X28330Y138666D01*
X28997D01*
X29663Y137999D01*
Y136667D01*
X28997Y136000D01*
X27664D01*
X26997Y136667D01*
X21666Y160832D02*
X20999Y161499D01*
X19667D01*
X19000Y160832D01*
Y160166D01*
X19667Y159499D01*
X20999D01*
X21666Y158833D01*
Y158167D01*
X20999Y157500D01*
X19667D01*
X19000Y158167D01*
X22999Y157500D02*
Y161499D01*
X25664Y157500D01*
Y161499D01*
X21666Y149832D02*
X20999Y150499D01*
X19667D01*
X19000Y149832D01*
Y147167D01*
X19667Y146500D01*
X20999D01*
X21666Y147167D01*
Y148499D01*
X20333D01*
X22999Y149832D02*
X23665Y150499D01*
X24998D01*
X25664Y149832D01*
Y149166D01*
X24998Y148499D01*
X24332D01*
X24998D01*
X25664Y147833D01*
Y147167D01*
X24998Y146500D01*
X23665D01*
X22999Y147167D01*
X28997Y146500D02*
Y150499D01*
X26997Y148499D01*
X29663D01*
X21666Y80332D02*
X20999Y80999D01*
X19667D01*
X19000Y80332D01*
Y77666D01*
X19667Y77000D01*
X20999D01*
X21666Y77666D01*
Y78999D01*
X20333D01*
X22999Y77000D02*
X24332D01*
X23665D01*
Y80999D01*
X22999Y80332D01*
X28330Y77000D02*
Y80999D01*
X26331Y78999D01*
X28997D01*
X21666Y99832D02*
X20999Y100499D01*
X19667D01*
X19000Y99832D01*
Y97166D01*
X19667Y96500D01*
X20999D01*
X21666Y97166D01*
Y98499D01*
X20333D01*
X25664Y96500D02*
X22999D01*
X25664Y99166D01*
Y99832D01*
X24998Y100499D01*
X23665D01*
X22999Y99832D01*
X29663Y100499D02*
X28330Y99832D01*
X26997Y98499D01*
Y97166D01*
X27664Y96500D01*
X28997D01*
X29663Y97166D01*
Y97833D01*
X28997Y98499D01*
X26997D01*
X21666Y89832D02*
X20999Y90499D01*
X19667D01*
X19000Y89832D01*
Y87166D01*
X19667Y86500D01*
X20999D01*
X21666Y87166D01*
Y88499D01*
X20333D01*
X25664Y86500D02*
X22999D01*
X25664Y89166D01*
Y89832D01*
X24998Y90499D01*
X23665D01*
X22999Y89832D01*
X26997Y90499D02*
X29663D01*
Y89832D01*
X26997Y87166D01*
Y86500D01*
X21666Y120332D02*
X20999Y120999D01*
X19667D01*
X19000Y120332D01*
Y117666D01*
X19667Y117000D01*
X20999D01*
X21666Y117666D01*
Y118999D01*
X20333D01*
X22999Y120332D02*
X23665Y120999D01*
X24998D01*
X25664Y120332D01*
Y119666D01*
X24998Y118999D01*
X24332D01*
X24998D01*
X25664Y118333D01*
Y117666D01*
X24998Y117000D01*
X23665D01*
X22999Y117666D01*
X26997Y120332D02*
X27664Y120999D01*
X28997D01*
X29663Y120332D01*
Y119666D01*
X28997Y118999D01*
X28330D01*
X28997D01*
X29663Y118333D01*
Y117666D01*
X28997Y117000D01*
X27664D01*
X26997Y117666D01*
X21666Y110332D02*
X20999Y110999D01*
X19667D01*
X19000Y110332D01*
Y107667D01*
X19667Y107000D01*
X20999D01*
X21666Y107667D01*
Y108999D01*
X20333D01*
X25664Y107000D02*
X22999D01*
X25664Y109666D01*
Y110332D01*
X24998Y110999D01*
X23665D01*
X22999Y110332D01*
X29663Y110999D02*
X26997D01*
Y108999D01*
X28330Y109666D01*
X28997D01*
X29663Y108999D01*
Y107667D01*
X28997Y107000D01*
X27664D01*
X26997Y107667D01*
X78680Y160499D02*
X81346D01*
X80013D01*
Y156500D01*
X82679Y160499D02*
X85344Y156500D01*
Y160499D02*
X82679Y156500D01*
X86677Y160499D02*
Y156500D01*
X88677D01*
X89343Y157167D01*
Y159832D01*
X88677Y160499D01*
X86677D01*
X81166Y168832D02*
X80499Y169499D01*
X79166D01*
X78500Y168832D01*
Y166166D01*
X79166Y165500D01*
X80499D01*
X81166Y166166D01*
Y167499D01*
X79833D01*
X85164Y165500D02*
X82499D01*
X85164Y168166D01*
Y168832D01*
X84498Y169499D01*
X83165D01*
X82499Y168832D01*
X89163Y165500D02*
X86497D01*
X89163Y168166D01*
Y168832D01*
X88497Y169499D01*
X87164D01*
X86497Y168832D01*
X78680Y146500D02*
Y150499D01*
X80679D01*
X81346Y149832D01*
Y148499D01*
X80679Y147833D01*
X78680D01*
X80013D02*
X81346Y146500D01*
X82679Y150499D02*
X85344Y146500D01*
Y150499D02*
X82679Y146500D01*
X86677Y150499D02*
Y146500D01*
X88677D01*
X89343Y147167D01*
Y149832D01*
X88677Y150499D01*
X86677D01*
X84916Y49332D02*
X84249Y49999D01*
X82916D01*
X82250Y49332D01*
Y46666D01*
X82916Y46000D01*
X84249D01*
X84916Y46666D01*
Y47999D01*
X83583D01*
X88915Y46000D02*
X86249D01*
X88915Y48666D01*
Y49332D01*
X88248Y49999D01*
X86915D01*
X86249Y49332D01*
X82986Y30332D02*
X82319Y30999D01*
X80986D01*
X80320Y30332D01*
Y29666D01*
X80986Y28999D01*
X82319D01*
X82986Y28333D01*
Y27666D01*
X82319Y27000D01*
X80986D01*
X80320Y27666D01*
X84319Y30999D02*
Y27000D01*
X86318D01*
X86984Y27666D01*
Y30332D01*
X86318Y30999D01*
X84319D01*
X88317Y27000D02*
X89650D01*
X88984D01*
Y30999D01*
X88317Y30332D01*
X82806Y39832D02*
X82139Y40499D01*
X80806D01*
X80140Y39832D01*
Y37166D01*
X80806Y36500D01*
X82139D01*
X82806Y37166D01*
Y38499D01*
X81473D01*
X84139Y36500D02*
X85472D01*
X84805D01*
Y40499D01*
X84139Y39832D01*
X90137Y40499D02*
X87471D01*
Y38499D01*
X88804Y39166D01*
X89470D01*
X90137Y38499D01*
Y37166D01*
X89470Y36500D01*
X88137D01*
X87471Y37166D01*
X84916Y59832D02*
X84249Y60499D01*
X82916D01*
X82250Y59832D01*
Y57166D01*
X82916Y56500D01*
X84249D01*
X84916Y57166D01*
Y58499D01*
X83583D01*
X86249Y59832D02*
X86915Y60499D01*
X88248D01*
X88915Y59832D01*
Y57166D01*
X88248Y56500D01*
X86915D01*
X86249Y57166D01*
Y59832D01*
X19000Y189832D02*
X19667Y190499D01*
X20999D01*
X21666Y189832D01*
Y189166D01*
X20999Y188499D01*
X20333D01*
X20999D01*
X21666Y187833D01*
Y187167D01*
X20999Y186500D01*
X19667D01*
X19000Y187167D01*
X22999Y190499D02*
Y187833D01*
X24332Y186500D01*
X25664Y187833D01*
Y190499D01*
X26997Y189832D02*
X27664Y190499D01*
X28997D01*
X29663Y189832D01*
Y189166D01*
X28997Y188499D01*
X28330D01*
X28997D01*
X29663Y187833D01*
Y187167D01*
X28997Y186500D01*
X27664D01*
X26997Y187167D01*
X21666Y180499D02*
X19000D01*
Y176500D01*
X21666D01*
X19000Y178499D02*
X20333D01*
X22999Y176500D02*
Y180499D01*
X25664Y176500D01*
Y180499D01*
X81166Y189832D02*
X80499Y190499D01*
X79166D01*
X78500Y189832D01*
Y187167D01*
X79166Y186500D01*
X80499D01*
X81166Y187167D01*
Y188499D01*
X79833D01*
X82499Y186500D02*
Y190499D01*
X85164Y186500D01*
Y190499D01*
X86497D02*
Y186500D01*
X88497D01*
X89163Y187167D01*
Y189832D01*
X88497Y190499D01*
X86497D01*
X81166Y179332D02*
X80499Y179999D01*
X79166D01*
X78500Y179332D01*
Y176666D01*
X79166Y176000D01*
X80499D01*
X81166Y176666D01*
Y177999D01*
X79833D01*
X85164Y176000D02*
X82499D01*
X85164Y178666D01*
Y179332D01*
X84498Y179999D01*
X83165D01*
X82499Y179332D01*
X86497D02*
X87164Y179999D01*
X88497D01*
X89163Y179332D01*
Y178666D01*
X88497Y177999D01*
X87830D01*
X88497D01*
X89163Y177333D01*
Y176666D01*
X88497Y176000D01*
X87164D01*
X86497Y176666D01*
X84916Y99832D02*
X84249Y100499D01*
X82916D01*
X82250Y99832D01*
Y97166D01*
X82916Y96500D01*
X84249D01*
X84916Y97166D01*
Y98499D01*
X83583D01*
X88915Y100499D02*
X86249D01*
Y98499D01*
X87582Y99166D01*
X88248D01*
X88915Y98499D01*
Y97166D01*
X88248Y96500D01*
X86915D01*
X86249Y97166D01*
X82986Y120832D02*
X82319Y121499D01*
X80986D01*
X80320Y120832D01*
Y118166D01*
X80986Y117500D01*
X82319D01*
X82986Y118166D01*
Y119499D01*
X81653D01*
X84319Y117500D02*
X85652D01*
X84985D01*
Y121499D01*
X84319Y120832D01*
X87651Y118166D02*
X88317Y117500D01*
X89650D01*
X90317Y118166D01*
Y120832D01*
X89650Y121499D01*
X88317D01*
X87651Y120832D01*
Y120166D01*
X88317Y119499D01*
X90317D01*
X81166Y130332D02*
X80499Y130999D01*
X79166D01*
X78500Y130332D01*
Y127666D01*
X79166Y127000D01*
X80499D01*
X81166Y127666D01*
Y128999D01*
X79833D01*
X82499Y127000D02*
Y130999D01*
X85164Y127000D01*
Y130999D01*
X86497D02*
Y127000D01*
X88497D01*
X89163Y127666D01*
Y130332D01*
X88497Y130999D01*
X86497D01*
X82806Y139832D02*
X82139Y140499D01*
X80806D01*
X80140Y139832D01*
Y137167D01*
X80806Y136500D01*
X82139D01*
X82806Y137167D01*
Y138499D01*
X81473D01*
X86804Y136500D02*
X84139D01*
X86804Y139166D01*
Y139832D01*
X86138Y140499D01*
X84805D01*
X84139Y139832D01*
X88137Y136500D02*
X89470D01*
X88804D01*
Y140499D01*
X88137Y139832D01*
X82806Y90832D02*
X82139Y91499D01*
X80806D01*
X80140Y90832D01*
Y88166D01*
X80806Y87500D01*
X82139D01*
X82806Y88166D01*
Y89499D01*
X81473D01*
X84139Y87500D02*
X85472D01*
X84805D01*
Y91499D01*
X84139Y90832D01*
X87471Y91499D02*
X90137D01*
Y90832D01*
X87471Y88166D01*
Y87500D01*
X82806Y109832D02*
X82139Y110499D01*
X80806D01*
X80140Y109832D01*
Y107167D01*
X80806Y106500D01*
X82139D01*
X82806Y107167D01*
Y108499D01*
X81473D01*
X84139Y106500D02*
X85472D01*
X84805D01*
Y110499D01*
X84139Y109832D01*
X87471D02*
X88137Y110499D01*
X89470D01*
X90137Y109832D01*
Y109166D01*
X89470Y108499D01*
X90137Y107833D01*
Y107167D01*
X89470Y106500D01*
X88137D01*
X87471Y107167D01*
Y107833D01*
X88137Y108499D01*
X87471Y109166D01*
Y109832D01*
X88137Y108499D02*
X89470D01*
X85253Y70400D02*
X84587Y71067D01*
X83254D01*
X82588Y70400D01*
Y67735D01*
X83254Y67068D01*
X84587D01*
X85253Y67735D01*
Y69068D01*
X83921D01*
X88586Y67068D02*
Y71067D01*
X86586Y69068D01*
X89252D01*
X82986Y81332D02*
X82319Y81999D01*
X80986D01*
X80320Y81332D01*
Y78666D01*
X80986Y78000D01*
X82319D01*
X82986Y78666D01*
Y79999D01*
X81653D01*
X84319Y78000D02*
X85652D01*
X84985D01*
Y81999D01*
X84319Y81332D01*
X90317Y81999D02*
X88984Y81332D01*
X87651Y79999D01*
Y78666D01*
X88317Y78000D01*
X89650D01*
X90317Y78666D01*
Y79333D01*
X89650Y79999D01*
X87651D01*
X19000Y10499D02*
Y7833D01*
X20333Y6500D01*
X21666Y7833D01*
Y10499D01*
X25664D02*
X22999D01*
Y8499D01*
X24332Y9166D01*
X24998D01*
X25664Y8499D01*
Y7166D01*
X24998Y6500D01*
X23665D01*
X22999Y7166D01*
X21666Y60332D02*
X20999Y60999D01*
X19667D01*
X19000Y60332D01*
Y57666D01*
X19667Y57000D01*
X20999D01*
X21666Y57666D01*
Y58999D01*
X20333D01*
X22999Y57000D02*
Y60999D01*
X25664Y57000D01*
Y60999D01*
X26997D02*
Y57000D01*
X28997D01*
X29663Y57666D01*
Y60332D01*
X28997Y60999D01*
X26997D01*
X21666Y69832D02*
X20999Y70499D01*
X19667D01*
X19000Y69832D01*
Y67166D01*
X19667Y66500D01*
X20999D01*
X21666Y67166D01*
Y68499D01*
X20333D01*
X22999Y66500D02*
X24332D01*
X23665D01*
Y70499D01*
X22999Y69832D01*
X28997Y66500D02*
X26331D01*
X28997Y69166D01*
Y69832D01*
X28330Y70499D01*
X26997D01*
X26331Y69832D01*
X21666Y50332D02*
X20999Y50999D01*
X19667D01*
X19000Y50332D01*
Y47666D01*
X19667Y47000D01*
X20999D01*
X21666Y47666D01*
Y48999D01*
X20333D01*
X22999Y47000D02*
X24332D01*
X23665D01*
Y50999D01*
X22999Y50332D01*
X26331D02*
X26997Y50999D01*
X28330D01*
X28997Y50332D01*
Y49666D01*
X28330Y48999D01*
X27664D01*
X28330D01*
X28997Y48333D01*
Y47666D01*
X28330Y47000D01*
X26997D01*
X26331Y47666D01*
X21666Y20332D02*
X20999Y20999D01*
X19667D01*
X19000Y20332D01*
Y17666D01*
X19667Y17000D01*
X20999D01*
X21666Y17666D01*
X22999Y17000D02*
Y20999D01*
X25664Y17000D01*
Y20999D01*
X26997D02*
Y17000D01*
X28997D01*
X29663Y17666D01*
Y20332D01*
X28997Y20999D01*
X26997D01*
D14*
X149000Y191500D02*
Y193500D01*
Y201500D02*
Y203500D01*
X123000Y185500D02*
Y193500D01*
Y201500D02*
Y209500D01*
X148500Y136000D02*
Y138000D01*
Y146000D02*
Y148000D01*
X122500Y130000D02*
Y138000D01*
Y146000D02*
Y154000D01*
X-21500Y267160D02*
X-19500D01*
X-21500Y-340D02*
X-19500D01*
X-20500Y267160D02*
X-18500Y261160D01*
X-22500D02*
X-20500Y267160D01*
Y-340D02*
X-18500Y5660D01*
X-22500D02*
X-20500Y-340D01*
Y165000D02*
Y267160D01*
Y-340D02*
Y101819D01*
X222338Y287179D02*
X222342Y289179D01*
X-1162Y287679D02*
X-1158Y289679D01*
X216336Y286193D02*
X222340Y288179D01*
X216345Y290193D02*
X222340Y288179D01*
X-1160Y288679D02*
X4836Y286666D01*
X-1160Y288679D02*
X4845Y290666D01*
X142180Y288359D02*
X222340Y288179D01*
X-1160Y288679D02*
X79000Y288500D01*
X40000Y2000D02*
X68500D01*
X40000D02*
Y18000D01*
X2000Y2000D02*
X104500D01*
X68500D02*
Y18000D01*
X40000D02*
X68500D01*
X2000Y196500D02*
X105000D01*
Y2000D02*
Y196500D01*
X2000Y2000D02*
Y196500D01*
X145000Y190501D02*
X141001D01*
X143001Y188502D02*
Y192500D01*
X144500Y135001D02*
X140501D01*
X142501Y133002D02*
Y137000D01*
X4800Y260700D02*
Y266698D01*
X7799D01*
X8799Y265698D01*
Y263699D01*
X7799Y262699D01*
X4800D01*
X6799D02*
X8799Y260700D01*
X14797Y266698D02*
X10798D01*
Y260700D01*
X14797D01*
X10798Y263699D02*
X12797D01*
X16796Y266698D02*
Y260700D01*
X20795D01*
X22794D02*
Y264699D01*
X24793Y266698D01*
X26793Y264699D01*
Y260700D01*
Y263699D01*
X22794D01*
X28792Y266698D02*
Y265698D01*
X30792Y263699D01*
X32791Y265698D01*
Y266698D01*
X30792Y263699D02*
Y260700D01*
X40788D02*
X42788D01*
X41788D01*
Y266698D01*
X40788Y265698D01*
X207001Y158497D02*
X212999D01*
X211000Y156498D01*
X212999Y154499D01*
X207001D01*
X208001Y148501D02*
X211999D01*
X212999Y149500D01*
Y151500D01*
X211999Y152499D01*
X208001D01*
X207001Y151500D01*
Y149500D01*
X209000Y150500D02*
X207001Y148501D01*
Y149500D02*
X208001Y148501D01*
X207001Y142503D02*
Y146501D01*
X211000Y142503D01*
X211999D01*
X212999Y143502D01*
Y145502D01*
X211999Y146501D01*
X153000Y29501D02*
Y34499D01*
X154666Y32833D01*
X156332Y34499D01*
Y29501D01*
X157998D02*
Y32833D01*
X159664Y34499D01*
X161331Y32833D01*
Y29501D01*
Y32000D01*
X157998D01*
X162997Y29501D02*
Y34499D01*
X166329Y29501D01*
Y34499D01*
X172994D02*
Y29501D01*
Y32000D01*
X176326D01*
Y34499D01*
Y29501D01*
X177992Y34499D02*
X179658D01*
X178825D01*
Y29501D01*
X177992D01*
X179658D01*
X182157D02*
Y34499D01*
X185489Y29501D01*
Y34499D01*
X187156D02*
Y29501D01*
Y32000D01*
X190488D01*
Y34499D01*
Y29501D01*
X199652Y34499D02*
X197985D01*
X197152Y33666D01*
Y30334D01*
X197985Y29501D01*
X199652D01*
X200485Y30334D01*
Y33666D01*
X199652Y34499D01*
X202151D02*
Y29501D01*
X205483D01*
X210481Y34499D02*
X207149D01*
Y29501D01*
X210481D01*
X207149Y32000D02*
X208815D01*
X212147Y34499D02*
Y29501D01*
X214647D01*
X215480Y30334D01*
Y33666D01*
X214647Y34499D01*
X212147D01*
X147599Y259398D02*
X145599D01*
X146599D01*
Y254400D01*
X145599Y253400D01*
X144600D01*
X143600Y254400D01*
X149598Y253400D02*
Y259398D01*
X152597D01*
X153597Y258398D01*
Y256399D01*
X152597Y255399D01*
X149598D01*
X155596Y253400D02*
X157596D01*
X156596D01*
Y259398D01*
X155596Y258398D01*
X115599Y75398D02*
X113599D01*
X114599D01*
Y70400D01*
X113599Y69400D01*
X112600D01*
X111600Y70400D01*
X117598Y75398D02*
Y69400D01*
X120597D01*
X121597Y70400D01*
Y74398D01*
X120597Y75398D01*
X117598D01*
X127595Y74398D02*
X126595Y75398D01*
X124596D01*
X123596Y74398D01*
Y70400D01*
X124596Y69400D01*
X126595D01*
X127595Y70400D01*
X133593Y69400D02*
X129594D01*
X133593Y73399D01*
Y74398D01*
X132593Y75398D01*
X130594D01*
X129594Y74398D01*
X164399Y105998D02*
X162399D01*
X163399D01*
Y101000D01*
X162399Y100000D01*
X161400D01*
X160400Y101000D01*
X167398Y103999D02*
X169397D01*
X170397Y102999D01*
Y100000D01*
X167398D01*
X166398Y101000D01*
X167398Y101999D01*
X170397D01*
X176395Y103999D02*
X173396D01*
X172396Y102999D01*
Y101000D01*
X173396Y100000D01*
X176395D01*
X178394D02*
Y105998D01*
Y101999D02*
X181393Y103999D01*
X178394Y101999D02*
X181393Y100000D01*
X190390Y105998D02*
Y100000D01*
X193389D01*
X194389Y101000D01*
Y104998D01*
X193389Y105998D01*
X190390D01*
X200387Y104998D02*
X199387Y105998D01*
X197388D01*
X196388Y104998D01*
Y101000D01*
X197388Y100000D01*
X199387D01*
X200387Y101000D01*
X206385Y100000D02*
X202386D01*
X206385Y103999D01*
Y104998D01*
X205385Y105998D01*
X203386D01*
X202386Y104998D01*
X6499Y205998D02*
X2500D01*
Y200000D01*
X6499D01*
X2500Y202999D02*
X4499D01*
X12497Y204998D02*
X11497Y205998D01*
X9498D01*
X8498Y204998D01*
Y203999D01*
X9498Y202999D01*
X11497D01*
X12497Y201999D01*
Y201000D01*
X11497Y200000D01*
X9498D01*
X8498Y201000D01*
X14496Y200000D02*
Y205998D01*
X17495D01*
X18495Y204998D01*
Y202999D01*
X17495Y201999D01*
X14496D01*
X24493Y200000D02*
X20494D01*
X24493Y203999D01*
Y204998D01*
X23493Y205998D01*
X21494D01*
X20494Y204998D01*
X98503Y234999D02*
Y229001D01*
X101502D01*
X102501Y230001D01*
Y233999D01*
X101502Y234999D01*
X98503D01*
X104501D02*
Y229001D01*
Y232000D01*
X108499D01*
Y234999D01*
Y229001D01*
X110499Y234999D02*
X114497D01*
X112498D01*
Y229001D01*
X166500Y136499D02*
X165501Y137499D01*
X163501D01*
X162502Y136499D01*
Y132501D01*
X163501Y131501D01*
X165501D01*
X166500Y132501D01*
X168500Y136499D02*
X169499Y137499D01*
X171499D01*
X172498Y136499D01*
Y135500D01*
X171499Y134500D01*
X172498Y133500D01*
Y132501D01*
X171499Y131501D01*
X169499D01*
X168500Y132501D01*
Y133500D01*
X169499Y134500D01*
X168500Y135500D01*
Y136499D01*
X169499Y134500D02*
X171499D01*
X136599Y111898D02*
X135599Y112898D01*
X133600D01*
X132600Y111898D01*
Y107900D01*
X133600Y106900D01*
X135599D01*
X136599Y107900D01*
X138598Y112898D02*
X142597D01*
Y111898D01*
X138598Y107900D01*
Y106900D01*
X119099Y111898D02*
X118099Y112898D01*
X116100D01*
X115100Y111898D01*
Y107900D01*
X116100Y106900D01*
X118099D01*
X119099Y107900D01*
X125097Y112898D02*
X123097Y111898D01*
X121098Y109899D01*
Y107900D01*
X122098Y106900D01*
X124097D01*
X125097Y107900D01*
Y108899D01*
X124097Y109899D01*
X121098D01*
X169000Y196499D02*
X168001Y197499D01*
X166001D01*
X165002Y196499D01*
Y192501D01*
X166001Y191501D01*
X168001D01*
X169000Y192501D01*
X174998Y197499D02*
X171000D01*
Y194500D01*
X172999Y195500D01*
X173999D01*
X174998Y194500D01*
Y192501D01*
X173999Y191501D01*
X171999D01*
X171000Y192501D01*
X209001Y257493D02*
X213000D01*
X214999Y255493D01*
X213000Y253494D01*
X209001D01*
X212000D01*
Y257493D01*
X209001Y251495D02*
X214999D01*
X209001Y247496D01*
X214999D01*
Y245496D02*
X209001D01*
X212000D01*
Y241498D01*
X214999D01*
X209001D01*
X213999Y229502D02*
X214999Y230501D01*
Y232501D01*
X213999Y233500D01*
X213000D01*
X212000Y232501D01*
Y230501D01*
X211000Y229502D01*
X210001D01*
X209001Y230501D01*
Y232501D01*
X210001Y233500D01*
X209001Y227502D02*
X213000D01*
X214999Y225503D01*
X213000Y223503D01*
X209001D01*
X212000D01*
Y227502D01*
X209001Y221504D02*
X214999D01*
X209001Y217506D01*
X214999D01*
X213999Y211507D02*
X214999Y212507D01*
Y214507D01*
X213999Y215506D01*
X210001D01*
X209001Y214507D01*
Y212507D01*
X210001Y211507D01*
X212000D01*
Y213507D01*
D15*
X-22899Y106818D02*
X-21899Y104819D01*
X-19900Y102819D01*
X-17901D01*
X-16901Y103819D01*
Y105818D01*
X-17901Y106818D01*
X-18900D01*
X-19900Y105818D01*
Y102819D01*
X-22899Y108818D02*
Y112816D01*
X-21899D01*
X-17901Y108818D01*
X-16901D01*
Y114815D02*
X-17901D01*
Y115815D01*
X-16901D01*
Y114815D01*
X-17901Y119814D02*
X-16901Y120814D01*
Y122813D01*
X-17901Y123813D01*
X-21899D01*
X-22899Y122813D01*
Y120814D01*
X-21899Y119814D01*
X-20900D01*
X-19900Y120814D01*
Y123813D01*
X-16901Y128811D02*
X-22899D01*
X-19900Y125812D01*
Y129811D01*
X-22899Y135809D02*
Y131810D01*
X-19900D01*
X-20900Y133809D01*
Y134809D01*
X-19900Y135809D01*
X-17901D01*
X-16901Y134809D01*
Y132810D01*
X-17901Y131810D01*
X-16901Y145806D02*
X-18900Y143806D01*
X-20900D01*
X-22899Y145806D01*
X-16901Y148804D02*
X-20900D01*
Y149804D01*
X-19900Y150804D01*
X-16901D01*
X-19900D01*
X-20900Y151804D01*
X-19900Y152803D01*
X-16901D01*
Y154803D02*
X-20900D01*
Y155802D01*
X-19900Y156802D01*
X-16901D01*
X-19900D01*
X-20900Y157802D01*
X-19900Y158801D01*
X-16901D01*
Y160801D02*
X-18900Y162800D01*
X-20900D01*
X-22899Y160801D01*
X84004Y290888D02*
X80005Y290897D01*
X79999Y287898D01*
X82000Y288893D01*
X83000Y288891D01*
X83997Y287889D01*
X83993Y285890D01*
X82991Y284892D01*
X80992Y284896D01*
X79994Y285898D01*
X90002Y290874D02*
X88001Y289879D01*
X85997Y287884D01*
X85992Y285885D01*
X86990Y284883D01*
X88989Y284879D01*
X89991Y285876D01*
X89993Y286876D01*
X88996Y287878D01*
X85997Y287884D01*
X91988Y284872D02*
X91990Y285872D01*
X92990Y285869D01*
X92988Y284870D01*
X91988Y284872D01*
X97000Y290859D02*
X100998Y290850D01*
X100996Y289850D01*
X96989Y285860D01*
X96986Y284861D01*
X106997Y290836D02*
X104995Y289841D01*
X102991Y287846D01*
X102987Y285847D01*
X103984Y284845D01*
X105983Y284841D01*
X106985Y285838D01*
X106988Y286838D01*
X105990Y287840D01*
X102991Y287846D01*
X108985Y285834D02*
X109982Y284832D01*
X111981Y284827D01*
X112983Y285825D01*
X112992Y289823D01*
X111995Y290825D01*
X109996Y290830D01*
X108994Y289832D01*
X108991Y288833D01*
X109989Y287831D01*
X112988Y287824D01*
X122978Y284803D02*
X120983Y286806D01*
X120987Y288806D01*
X122991Y290801D01*
X125977Y284796D02*
X125986Y288795D01*
X126986Y288792D01*
X127983Y287790D01*
X127976Y284791D01*
X127983Y287790D01*
X128985Y288788D01*
X129982Y287786D01*
X129976Y284787D01*
X131975Y284783D02*
X131984Y288781D01*
X132984Y288779D01*
X133981Y287777D01*
X133974Y284778D01*
X133981Y287777D01*
X134983Y288774D01*
X135980Y287772D01*
X135974Y284773D01*
X137973Y284769D02*
X139977Y286764D01*
X139981Y288763D01*
X137987Y290767D01*
M02*
